<svg width="44" height="44" viewBox="0 0 44 44" fill="none" xmlns="http://www.w3.org/2000/svg">
<path d="M22 0C17.6488 0 13.3953 1.29028 9.77746 3.70767C6.15958 6.12506 3.33979 9.56099 1.67466 13.581C0.00953229 17.6009 -0.426141 22.0244 0.422734 26.292C1.27161 30.5596 3.3669 34.4796 6.44366 37.5563C9.52041 40.6331 13.4404 42.7284 17.708 43.5773C21.9756 44.4261 26.3991 43.9905 30.419 42.3253C34.439 40.6602 37.8749 37.8404 40.2923 34.2225C42.7097 30.6047 44 26.3512 44 22C43.9937 16.1672 41.6738 10.5751 37.5494 6.45062C33.425 2.32618 27.8328 0.00630865 22 0ZM22 40.3333C18.374 40.3333 14.8295 39.2581 11.8146 37.2436C8.79965 35.2291 6.44982 32.3658 5.06222 29.0159C3.67461 25.6659 3.31155 21.9797 4.01895 18.4233C4.72634 14.867 6.47242 11.6003 9.03638 9.03637C11.6003 6.47241 14.867 4.72633 18.4234 4.01894C21.9797 3.31154 25.6659 3.6746 29.0159 5.06221C32.3658 6.44981 35.2291 8.79964 37.2436 11.8145C39.2581 14.8294 40.3333 18.374 40.3333 22C40.328 26.8607 38.3947 31.5207 34.9577 34.9577C31.5207 38.3947 26.8607 40.328 22 40.3333Z" fill="#FF8C8C"/>
<path d="M30.4736 13.5482C30.1365 13.2116 29.6793 13.0224 29.2026 13.0224C28.7258 13.0224 28.2686 13.2116 27.9315 13.5482L22.0112 19.461L16.091 13.5482C15.9251 13.3767 15.7268 13.2399 15.5074 13.1458C15.2881 13.0517 15.0522 13.0021 14.8135 13.0001C14.5747 12.998 14.338 13.0434 14.1171 13.1337C13.8961 13.224 13.6954 13.3573 13.5266 13.5259C13.3578 13.6945 13.2243 13.895 13.1339 14.1157C13.0435 14.3363 12.998 14.5728 13.0001 14.8112C13.0021 15.0496 13.0517 15.2852 13.146 15.5043C13.2402 15.7234 13.3771 15.9215 13.5489 16.0871L19.4691 22L13.5489 27.9129C13.3771 28.0785 13.2402 28.2766 13.146 28.4957C13.0517 28.7148 13.0021 28.9504 13.0001 29.1888C12.998 29.4272 13.0435 29.6637 13.1339 29.8843C13.2243 30.105 13.3578 30.3055 13.5266 30.4741C13.6954 30.6427 13.8961 30.776 14.1171 30.8663C14.338 30.9566 14.5747 31.002 14.8135 30.9999C15.0522 30.9979 15.2881 30.9483 15.5074 30.8542C15.7268 30.7601 15.9251 30.6233 16.091 30.4518L22.0112 24.539L27.9315 30.4518C28.2706 30.7789 28.7247 30.9599 29.1961 30.9558C29.6675 30.9517 30.1184 30.7629 30.4517 30.43C30.7851 30.097 30.9741 29.6467 30.9782 29.1759C30.9823 28.7051 30.8011 28.2515 30.4736 27.9129L24.5534 22L30.4736 16.0871C30.8107 15.7504 31 15.2938 31 14.8177C31 14.3415 30.8107 13.8849 30.4736 13.5482Z" fill="#FF8C8C"/>
</svg>
