<svg width="43" height="43" viewBox="0 0 43 43" fill="none" xmlns="http://www.w3.org/2000/svg">
<circle cx="21.5" cy="21.5" r="19.9643" stroke="#A2FBA0" stroke-width="3.07143"/>
<path d="M17.8572 23.7471L19.0048 24.8772L20.1551 23.7498L28.3583 15.7096C28.3586 15.7093 28.3588 15.709 28.3591 15.7087C28.5185 15.5535 28.7422 15.4597 28.9832 15.4597C29.2245 15.4597 29.4486 15.5538 29.608 15.7096C29.7662 15.8641 29.8478 16.0655 29.8478 16.2672C29.8478 16.469 29.7662 16.6704 29.608 16.8249L30.7087 17.9513L29.608 16.8249L19.6324 26.5728L19.6324 26.5728L19.6276 26.5775C19.5499 26.6541 19.4553 26.7168 19.3485 26.7603C19.2416 26.8039 19.1256 26.8267 19.0075 26.8267C18.8895 26.8267 18.7735 26.8039 18.6666 26.7603C18.5597 26.7168 18.4652 26.6541 18.3875 26.5775L18.3827 26.5728L13.3949 21.6988C13.2367 21.5443 13.1551 21.343 13.1551 21.1412C13.1551 20.9394 13.2367 20.738 13.3949 20.5835C13.5543 20.4277 13.7783 20.3337 14.0197 20.3337C14.2603 20.3337 14.4836 20.4271 14.6429 20.5818C14.6435 20.5824 14.644 20.5829 14.6446 20.5835L17.8572 23.7471Z" fill="white" stroke="#A2FBA0" stroke-width="3.27887"/>
</svg>
