<svg width="52" height="52" viewBox="0 0 52 52" fill="none" xmlns="http://www.w3.org/2000/svg">
<g filter="url(#filter0_b_4053_3544)">
<rect width="52" height="52" rx="12" fill="#F3F8FB" fill-opacity="0.02"/>
<rect x="0.75" y="0.75" width="50.5" height="50.5" rx="11.25" stroke="url(#paint0_linear_4053_3544)" stroke-width="1.5"/>
<path fill-rule="evenodd" clip-rule="evenodd" d="M23.7161 33.9728C30.3946 33.9728 35.8086 28.5588 35.8086 21.8803C35.8086 18.7297 34.6036 15.8605 32.6295 13.7083C32.2677 13.3139 31.9758 12.7772 32.2337 12.3082C32.2431 12.2911 32.2529 12.2741 32.2631 12.2571C32.5724 11.7414 32.9458 11.4026 33.303 11.18C34.0591 10.7088 34.9799 11.097 35.5519 11.7801C40.6676 17.8906 40.3544 27.0062 34.612 32.7486C32.4264 34.9341 29.7522 36.3333 26.9411 36.9459C27.325 37.0617 27.7108 37.186 28.089 37.3137C29.7198 37.8641 31.2626 38.4939 32.022 38.8136C32.4503 38.9941 32.7172 39.4118 32.7172 39.8688C32.7172 40.5079 32.199 41.026 31.56 41.026H15.5571C14.9181 41.026 14.4 40.5079 14.4 39.8688C14.4 39.4118 14.6668 38.9941 15.0952 38.8136C15.8545 38.4939 17.3973 37.8641 19.0282 37.3137C19.4218 37.1808 19.8237 37.0515 20.2234 36.9317C17.8616 36.4065 15.5986 35.3254 13.6433 33.6882C12.9603 33.1165 12.5721 32.1958 13.0432 31.4398C13.2658 31.0826 13.6046 30.7091 14.1205 30.3997C14.5803 30.1239 15.1248 30.407 15.5189 30.7706C17.6738 32.7584 20.5531 33.9728 23.7161 33.9728ZM26.5354 13.9159C26.5939 15.2255 26.4195 16.7752 25.2749 17.8973C24.8011 18.3618 24.2155 18.5883 23.7023 18.7253C23.3235 18.8263 22.8978 18.8978 22.5241 18.9606C22.4088 18.9799 22.2982 18.9986 22.1958 19.017C21.2127 19.1927 20.6217 19.4022 20.2668 19.9259C19.9327 20.4189 20.0064 20.894 20.3042 21.8922C20.3182 21.9391 20.3328 21.9875 20.3478 22.0372C20.6136 22.9156 21.009 24.2226 20.3354 25.5801C19.526 27.2111 18.0628 27.7653 16.666 27.8844C16.1876 27.9253 15.6925 27.9171 15.2063 27.883C17.0917 30.5511 20.2005 32.2933 23.7161 32.2933C24.7272 32.2933 25.7047 32.1492 26.6291 31.8804L26.2848 29.3107L26.2797 29.2725L26.2775 29.2338C26.2698 29.0977 26.2134 28.9599 25.9982 28.7532C25.8864 28.6456 25.7489 28.5365 25.5771 28.4098C25.5278 28.3734 25.4701 28.3316 25.4082 28.2869L25.4069 28.286C25.282 28.1956 25.141 28.0936 25.0216 28.0015C23.6678 26.9575 22.5912 24.901 23.788 23.0402C24.2026 22.3956 24.7379 21.8516 25.4186 21.5003C26.1065 21.1455 26.8809 21.0198 27.7123 21.1197L27.7251 21.1213L27.7379 21.1231L34.1275 22.0576C34.1286 21.9986 34.1291 21.9395 34.1291 21.8803C34.1291 17.0159 30.7935 12.9305 26.2849 11.7866C26.2946 11.8462 26.3044 11.9068 26.3142 11.9684C26.411 12.5742 26.5054 13.2444 26.5354 13.9159ZM13.3031 21.8803C13.3031 23.2371 13.5625 24.5332 14.0346 25.7219C14.8898 25.845 15.7257 25.9419 16.4948 25.8763C17.4797 25.7923 18.1443 25.4616 18.53 24.6843C18.8316 24.0765 18.6812 23.5016 18.3729 22.4684L18.3619 22.4318C18.0899 21.5208 17.6805 20.1497 18.5985 18.7952C19.4664 17.5145 20.8556 17.2092 21.8411 17.033C21.994 17.0057 22.1358 16.9818 22.2691 16.9594C22.6146 16.9011 22.9037 16.8524 23.1827 16.778C23.5518 16.6795 23.7497 16.5702 23.864 16.4581C24.3804 15.9518 24.5729 15.1463 24.522 14.0058C24.4972 13.4523 24.4179 12.8738 24.324 12.2861C24.2988 12.1279 24.2718 11.9657 24.2447 11.8025C24.2268 11.6945 24.2088 11.5859 24.1911 11.478C24.0337 11.4709 23.8753 11.4673 23.7161 11.4673C17.9651 11.4673 13.3031 16.1294 13.3031 21.8803ZM28.5582 31.1014C31.2515 29.6842 33.2481 27.1215 33.9003 24.0612L27.46 23.1193C26.9929 23.0651 26.6339 23.1412 26.3428 23.2915C26.042 23.4466 25.7512 23.7136 25.4831 24.1305C25.1039 24.7201 25.299 25.6703 26.2524 26.4055C26.314 26.453 26.3965 26.5128 26.4915 26.5815C26.7585 26.7749 27.1235 27.0392 27.3949 27.3C27.8109 27.6999 28.2281 28.2716 28.2869 29.0768L28.5582 31.1014Z" fill="url(#paint1_linear_4053_3544)"/>
</g>
<defs>
<filter id="filter0_b_4053_3544" x="-21.4337" y="-21.4337" width="94.8674" height="94.8674" filterUnits="userSpaceOnUse" color-interpolation-filters="sRGB">
<feFlood flood-opacity="0" result="BackgroundImageFix"/>
<feGaussianBlur in="BackgroundImageFix" stdDeviation="10.7168"/>
<feComposite in2="SourceAlpha" operator="in" result="effect1_backgroundBlur_4053_3544"/>
<feBlend mode="normal" in="SourceGraphic" in2="effect1_backgroundBlur_4053_3544" result="shape"/>
</filter>
<linearGradient id="paint0_linear_4053_3544" x1="0" y1="26" x2="52" y2="26" gradientUnits="userSpaceOnUse">
<stop stop-color="#3A5590"/>
<stop offset="0.195" stop-color="#4885FF" stop-opacity="0.27"/>
<stop offset="0.39" stop-color="#82ACFF"/>
<stop offset="0.55" stop-color="#76A4FF" stop-opacity="0.27"/>
<stop offset="0.739682" stop-color="#98BBFF" stop-opacity="0.27"/>
</linearGradient>
<linearGradient id="paint1_linear_4053_3544" x1="13.4942" y1="11.5988" x2="41.3037" y2="38.6102" gradientUnits="userSpaceOnUse">
<stop stop-color="#7A96AC"/>
<stop offset="0.18" stop-color="#EAEFF3"/>
<stop offset="0.315" stop-color="#C2D4E1"/>
<stop offset="0.491919" stop-color="white"/>
<stop offset="0.615" stop-color="#D4DEE5"/>
<stop offset="0.785" stop-color="#ABBDC8"/>
<stop offset="0.955" stop-color="#BCCAD7"/>
</linearGradient>
</defs>
</svg>
