<svg width="52" height="52" viewBox="0 0 52 52" fill="none" xmlns="http://www.w3.org/2000/svg">
<g filter="url(#filter0_b_4053_3537)">
<rect width="52" height="52" rx="12" fill="#F3F8FB" fill-opacity="0.02"/>
<rect x="0.75" y="0.75" width="50.5" height="50.5" rx="11.25" stroke="url(#paint0_linear_4053_3537)" stroke-width="1.5"/>
<g clip-path="url(#clip0_4053_3537)">
<path fill-rule="evenodd" clip-rule="evenodd" d="M11.3333 10C10.597 10 10 10.597 10 11.3333V35.3333C10 36.0697 10.597 36.6667 11.3333 36.6667H23.3333V34H12.6667V12.6667H26V18H31.3333V23.3333H34V16.6667C34 16.313 33.8595 15.9739 33.6095 15.7239L28.2761 10.3905C28.0261 10.1405 27.6869 10 27.3333 10H11.3333ZM16 30V16.6667H18.6667V30H16ZM25.3333 20.6667V24.6667H28V20.6667H25.3333ZM20.6667 30V23.3333H23.3333V30H20.6667ZM42 26V32.6667H35.3333L37.7713 30.2287C36.8061 29.2636 35.4728 28.6667 34 28.6667C31.5149 28.6667 29.4268 30.3664 28.8348 32.6667H26.1107C26.7455 28.8831 30.0361 26 34 26C36.2092 26 38.2092 26.8955 39.6569 28.3431L42 26ZM26 42V35.3333H32.6667L30.2288 37.7712C31.194 38.7364 32.5273 39.3333 34 39.3333C36.4852 39.3333 38.5733 37.6336 39.1653 35.3333H41.8895C41.2547 39.1169 37.964 42 34 42C31.7909 42 29.7909 41.1045 28.3432 39.6568L26 42Z" fill="url(#paint1_linear_4053_3537)"/>
</g>
</g>
<defs>
<filter id="filter0_b_4053_3537" x="-21.4337" y="-21.4337" width="94.8674" height="94.8674" filterUnits="userSpaceOnUse" color-interpolation-filters="sRGB">
<feFlood flood-opacity="0" result="BackgroundImageFix"/>
<feGaussianBlur in="BackgroundImageFix" stdDeviation="10.7168"/>
<feComposite in2="SourceAlpha" operator="in" result="effect1_backgroundBlur_4053_3537"/>
<feBlend mode="normal" in="SourceGraphic" in2="effect1_backgroundBlur_4053_3537" result="shape"/>
</filter>
<linearGradient id="paint0_linear_4053_3537" x1="0" y1="26" x2="52" y2="26" gradientUnits="userSpaceOnUse">
<stop stop-color="#3A5590"/>
<stop offset="0.195" stop-color="#4885FF" stop-opacity="0.27"/>
<stop offset="0.39" stop-color="#82ACFF"/>
<stop offset="0.55" stop-color="#76A4FF" stop-opacity="0.27"/>
<stop offset="0.739682" stop-color="#98BBFF" stop-opacity="0.27"/>
</linearGradient>
<linearGradient id="paint1_linear_4053_3537" x1="10.8" y1="10.6667" x2="40.2667" y2="43.3333" gradientUnits="userSpaceOnUse">
<stop stop-color="#7A96AC"/>
<stop offset="0.18" stop-color="#EAEFF3"/>
<stop offset="0.315" stop-color="#C2D4E1"/>
<stop offset="0.491919" stop-color="white"/>
<stop offset="0.615" stop-color="#D4DEE5"/>
<stop offset="0.785" stop-color="#ABBDC8"/>
<stop offset="0.955" stop-color="#BCCAD7"/>
</linearGradient>
<clipPath id="clip0_4053_3537">
<rect width="32" height="32" fill="white" transform="translate(10 10)"/>
</clipPath>
</defs>
</svg>
